<svg width="84" height="81" viewBox="0 0 84 81" fill="none" xmlns="http://www.w3.org/2000/svg">
<rect y="36.0624" width="51" height="11" transform="rotate(-45 0 36.0624)" fill="#06CBAD" fill-opacity="0.69"/>
<rect x="75.4827" y="44.2609" width="51" height="11" transform="rotate(-135 75.4827 44.2609)" fill="#866BFA" fill-opacity="0.69"/>
<rect x="36.4827" y="80.2609" width="51" height="11" transform="rotate(-135 36.4827 80.2609)" fill="#FD456B" fill-opacity="0.69"/>
<rect x="83.2609" y="44.1985" width="51" height="11" transform="rotate(135 83.2609 44.1985)" fill="#F5CC00" fill-opacity="0.69"/>
<path d="M41.7083 45.0363V32.8443H39.2763C38.999 32.8443 38.8603 32.7163 38.8603 32.4603V30.8283C38.8603 30.5723 38.999 30.4443 39.2763 30.4443H46.9563C47.2336 30.4443 47.3723 30.5723 47.3723 30.8283V32.4603C47.3723 32.7163 47.2336 32.8443 46.9563 32.8443H44.4923V44.7483C44.4923 47.8843 43.7563 50.1136 42.2843 51.4363C40.8123 52.7589 38.5083 53.4203 35.3723 53.4203C35.095 53.4203 34.9563 53.2923 34.9563 53.0363V51.4043C34.9563 51.1483 35.095 51.0203 35.3723 51.0203C37.719 51.0203 39.3616 50.5403 40.3003 49.5803C41.239 48.5989 41.7083 47.0843 41.7083 45.0363Z" fill="black"/>
</svg>
