<svg width="84" height="81" viewBox="0 0 84 81" fill="none" xmlns="http://www.w3.org/2000/svg">
<rect y="36.0624" width="51" height="11" transform="rotate(-45 0 36.0624)" fill="#06CBAD" fill-opacity="0.69"/>
<rect x="75.4827" y="44.2609" width="51" height="11" transform="rotate(-135 75.4827 44.2609)" fill="#866BFA" fill-opacity="0.69"/>
<rect x="36.4827" y="80.2609" width="51" height="11" transform="rotate(-135 36.4827 80.2609)" fill="#FD456B" fill-opacity="0.69"/>
<rect x="83.261" y="44.1985" width="51" height="11" transform="rotate(135 83.261 44.1985)" fill="#F5CC00" fill-opacity="0.69"/>
<path d="M41.7084 45.0363V32.8443H39.2764C38.9991 32.8443 38.8604 32.7163 38.8604 32.4603V30.8283C38.8604 30.5723 38.9991 30.4443 39.2764 30.4443H46.9564C47.2337 30.4443 47.3724 30.5723 47.3724 30.8283V32.4603C47.3724 32.7163 47.2337 32.8443 46.9564 32.8443H44.4924V44.7483C44.4924 47.8843 43.7564 50.1136 42.2844 51.4363C40.8124 52.7589 38.5084 53.4203 35.3724 53.4203C35.0951 53.4203 34.9564 53.2923 34.9564 53.0363V51.4043C34.9564 51.1483 35.0951 51.0203 35.3724 51.0203C37.7191 51.0203 39.3617 50.5403 40.3004 49.5803C41.2391 48.5989 41.7084 47.0843 41.7084 45.0363Z" fill="white"/>
</svg>
