<svg width="138" height="142" viewBox="0 0 138 142" fill="none" xmlns="http://www.w3.org/2000/svg">
<path d="M8.8125 105.241V93.3578H12.0352V105.241C12.0352 106.373 11.7891 107.346 11.2969 108.159C10.8047 108.963 10.1328 109.58 9.28125 110.01C8.42969 110.44 7.46875 110.655 6.39844 110.655C5.29688 110.655 4.32031 110.471 3.46875 110.104C2.61719 109.729 1.94922 109.159 1.46484 108.393C0.988281 107.627 0.75 106.655 0.75 105.475H3.98438C3.98438 106.116 4.08203 106.631 4.27734 107.022C4.47266 107.412 4.75 107.694 5.10938 107.866C5.47656 108.037 5.90625 108.123 6.39844 108.123C6.875 108.123 7.29297 108.014 7.65234 107.795C8.01953 107.569 8.30469 107.241 8.50781 106.811C8.71094 106.381 8.8125 105.858 8.8125 105.241ZM29.0508 101.455V102.334C29.0508 103.623 28.8789 104.784 28.5352 105.815C28.1914 106.838 27.7031 107.709 27.0703 108.428C26.4375 109.147 25.6836 109.698 24.8086 110.08C23.9336 110.463 22.9609 110.655 21.8906 110.655C20.8359 110.655 19.8672 110.463 18.9844 110.08C18.1094 109.698 17.3516 109.147 16.7109 108.428C16.0703 107.709 15.5742 106.838 15.2227 105.815C14.8711 104.784 14.6953 103.623 14.6953 102.334V101.455C14.6953 100.159 14.8711 98.9984 15.2227 97.975C15.5742 96.9515 16.0664 96.0804 16.6992 95.3617C17.332 94.6351 18.0859 94.0804 18.9609 93.6976C19.8438 93.3148 20.8125 93.1234 21.8672 93.1234C22.9375 93.1234 23.9102 93.3148 24.7852 93.6976C25.6602 94.0804 26.4141 94.6351 27.0469 95.3617C27.6875 96.0804 28.1797 96.9515 28.5234 97.975C28.875 98.9984 29.0508 100.159 29.0508 101.455ZM25.793 102.334V101.432C25.793 100.502 25.707 99.6859 25.5352 98.9828C25.3633 98.2719 25.1094 97.6742 24.7734 97.1898C24.4375 96.7054 24.0234 96.3422 23.5312 96.1C23.0391 95.85 22.4844 95.725 21.8672 95.725C21.2422 95.725 20.6875 95.85 20.2031 96.1C19.7266 96.3422 19.3203 96.7054 18.9844 97.1898C18.6484 97.6742 18.3906 98.2719 18.2109 98.9828C18.0391 99.6859 17.9531 100.502 17.9531 101.432V102.334C17.9531 103.256 18.0391 104.073 18.2109 104.784C18.3906 105.495 18.6484 106.096 18.9844 106.588C19.3281 107.073 19.7422 107.44 20.2266 107.69C20.7109 107.94 21.2656 108.065 21.8906 108.065C22.5156 108.065 23.0703 107.94 23.5547 107.69C24.0391 107.44 24.4453 107.073 24.7734 106.588C25.1094 106.096 25.3633 105.495 25.5352 104.784C25.707 104.073 25.793 103.256 25.793 102.334ZM38.3203 102.815H33.9609L33.9375 100.541H37.6758C38.3164 100.541 38.8516 100.452 39.2812 100.272C39.7109 100.092 40.0352 99.8304 40.2539 99.4867C40.4805 99.1429 40.5938 98.725 40.5938 98.2328C40.5938 97.6859 40.4883 97.2406 40.2773 96.8969C40.0742 96.5531 39.7539 96.3031 39.3164 96.1469C38.8789 95.9828 38.3242 95.9008 37.6523 95.9008H35.0039V110.42H31.7812V93.3578H37.6523C38.6211 93.3578 39.4844 93.4515 40.2422 93.639C41.0078 93.8187 41.6562 94.1 42.1875 94.4828C42.7188 94.8656 43.1211 95.3461 43.3945 95.9242C43.6758 96.5023 43.8164 97.1898 43.8164 97.9867C43.8164 98.6898 43.6523 99.3383 43.3242 99.932C43.0039 100.518 42.5078 100.995 41.8359 101.362C41.1719 101.729 40.3281 101.94 39.3047 101.995L38.3203 102.815ZM38.1797 110.42H33.0117L34.3594 107.889H38.1797C38.8203 107.889 39.3477 107.784 39.7617 107.573C40.1836 107.362 40.4961 107.073 40.6992 106.705C40.9102 106.33 41.0156 105.901 41.0156 105.416C41.0156 104.885 40.9219 104.424 40.7344 104.034C40.5547 103.643 40.2656 103.342 39.8672 103.131C39.4766 102.92 38.9609 102.815 38.3203 102.815H34.9688L34.9922 100.541H39.2578L39.9961 101.42C40.9805 101.428 41.7812 101.623 42.3984 102.006C43.0234 102.389 43.4844 102.881 43.7812 103.483C44.0781 104.084 44.2266 104.733 44.2266 105.428C44.2266 106.522 43.9883 107.44 43.5117 108.182C43.043 108.924 42.3555 109.483 41.4492 109.858C40.5508 110.233 39.4609 110.42 38.1797 110.42ZM57 104.807H60.2227C60.1367 105.948 59.8203 106.959 59.2734 107.842C58.7266 108.717 57.9648 109.405 56.9883 109.905C56.0117 110.405 54.8281 110.655 53.4375 110.655C52.3672 110.655 51.4023 110.467 50.543 110.092C49.6914 109.709 48.9609 109.166 48.3516 108.463C47.75 107.752 47.2891 106.901 46.9688 105.909C46.6484 104.909 46.4883 103.787 46.4883 102.545V101.245C46.4883 100.002 46.6523 98.8812 46.9805 97.8812C47.3086 96.8812 47.7773 96.0297 48.3867 95.3265C49.0039 94.6156 49.7422 94.0687 50.6016 93.6859C51.4688 93.3031 52.4375 93.1117 53.5078 93.1117C54.8984 93.1117 56.0742 93.3695 57.0352 93.8851C57.9961 94.3929 58.7422 95.0922 59.2734 95.9828C59.8047 96.8734 60.125 97.8969 60.2344 99.0531H57.0117C56.9492 98.3344 56.793 97.725 56.543 97.225C56.3008 96.725 55.9336 96.3461 55.4414 96.0883C54.957 95.8226 54.3125 95.6898 53.5078 95.6898C52.8828 95.6898 52.332 95.807 51.8555 96.0414C51.3867 96.2758 50.9961 96.6273 50.6836 97.0961C50.3711 97.557 50.1367 98.1351 49.9805 98.8304C49.8242 99.5179 49.7461 100.315 49.7461 101.221V102.545C49.7461 103.412 49.8164 104.19 49.957 104.877C50.0977 105.565 50.3164 106.147 50.6133 106.623C50.9102 107.1 51.293 107.463 51.7617 107.713C52.2305 107.963 52.7891 108.088 53.4375 108.088C54.2266 108.088 54.8672 107.963 55.3594 107.713C55.8594 107.463 56.2383 107.096 56.4961 106.612C56.7617 106.127 56.9297 105.526 57 104.807ZM74.0391 100.401V102.932H65.0625V100.401H74.0391ZM65.9414 93.3578V110.42H62.7188V93.3578H65.9414ZM76.4297 93.3578V110.42H73.207V93.3578H76.4297ZM86.707 95.9476L81.8438 110.42H78.4336L84.8086 93.3578H86.9883L86.707 95.9476ZM90.7734 110.42L85.8867 95.9476L85.5938 93.3578H87.7852L94.1953 110.42H90.7734ZM90.5508 104.08V106.623H81.3984V104.08H90.5508ZM104.883 105.991C104.883 105.662 104.832 105.37 104.73 105.112C104.637 104.846 104.461 104.608 104.203 104.397C103.953 104.178 103.598 103.967 103.137 103.764C102.684 103.553 102.098 103.334 101.379 103.108C100.582 102.858 99.8398 102.577 99.1523 102.264C98.4648 101.952 97.8594 101.588 97.3359 101.174C96.8203 100.76 96.418 100.284 96.1289 99.7445C95.8398 99.1976 95.6953 98.5648 95.6953 97.8461C95.6953 97.1429 95.8438 96.5023 96.1406 95.9242C96.4453 95.3461 96.875 94.85 97.4297 94.4359C97.9844 94.014 98.6367 93.6898 99.3867 93.4633C100.145 93.2367 100.98 93.1234 101.895 93.1234C103.16 93.1234 104.254 93.3539 105.176 93.8148C106.105 94.2758 106.824 94.9008 107.332 95.6898C107.84 96.4789 108.094 97.3656 108.094 98.35H104.883C104.883 97.8187 104.77 97.35 104.543 96.9437C104.324 96.5375 103.988 96.2172 103.535 95.9828C103.09 95.7484 102.527 95.6312 101.848 95.6312C101.191 95.6312 100.645 95.7289 100.207 95.9242C99.7773 96.1195 99.4531 96.3851 99.2344 96.7211C99.0234 97.057 98.918 97.432 98.918 97.8461C98.918 98.1586 98.9922 98.4398 99.1406 98.6898C99.2891 98.932 99.5117 99.1625 99.8086 99.3812C100.105 99.5922 100.473 99.7914 100.91 99.9789C101.355 100.159 101.871 100.338 102.457 100.518C103.395 100.799 104.215 101.112 104.918 101.455C105.629 101.799 106.219 102.19 106.688 102.627C107.164 103.065 107.52 103.557 107.754 104.104C107.996 104.651 108.117 105.272 108.117 105.967C108.117 106.702 107.973 107.358 107.684 107.936C107.395 108.514 106.98 109.006 106.441 109.412C105.902 109.819 105.254 110.127 104.496 110.338C103.746 110.549 102.906 110.655 101.977 110.655C101.148 110.655 100.328 110.545 99.5156 110.327C98.7109 110.1 97.9805 109.764 97.3242 109.319C96.668 108.866 96.1445 108.295 95.7539 107.608C95.3633 106.912 95.168 106.1 95.168 105.17H98.4023C98.4023 105.709 98.4883 106.17 98.6602 106.553C98.8398 106.928 99.0898 107.237 99.4102 107.479C99.7383 107.713 100.121 107.885 100.559 107.995C100.996 108.104 101.469 108.159 101.977 108.159C102.633 108.159 103.172 108.069 103.594 107.889C104.023 107.702 104.344 107.444 104.555 107.116C104.773 106.787 104.883 106.412 104.883 105.991ZM121.91 107.889V110.42H112.84V107.889H121.91ZM113.824 93.3578V110.42H110.602V93.3578H113.824ZM120.727 100.401V102.873H112.84V100.401H120.727ZM121.875 93.3578V95.9008H112.84V93.3578H121.875ZM124.148 93.3578H130.348C131.645 93.3578 132.758 93.5531 133.688 93.9437C134.617 94.3344 135.332 94.9125 135.832 95.6781C136.332 96.4437 136.582 97.3851 136.582 98.5023C136.582 99.3851 136.426 100.151 136.113 100.799C135.801 101.448 135.359 101.991 134.789 102.428C134.227 102.866 133.562 103.209 132.797 103.459L131.789 103.975H126.316L126.293 101.432H130.383C131.047 101.432 131.598 101.315 132.035 101.08C132.473 100.846 132.801 100.522 133.02 100.108C133.246 99.6937 133.359 99.2211 133.359 98.6898C133.359 98.1195 133.25 97.6273 133.031 97.2133C132.812 96.7914 132.48 96.4672 132.035 96.2406C131.59 96.014 131.027 95.9008 130.348 95.9008H127.371V110.42H124.148V93.3578ZM133.781 110.42L129.832 102.78L133.242 102.768L137.238 110.256V110.42H133.781ZM41.4805 134.887V136.42H35.3086V134.887H41.4805ZM35.6309 122.202V136.42H33.834V122.202H35.6309ZM40.6504 128.315V129.848H35.3086V128.315H40.6504ZM41.3828 122.202V123.745H35.3086V122.202H41.3828ZM49.9961 132.827C49.9961 132.495 49.957 132.202 49.8789 131.948C49.8008 131.687 49.6641 131.453 49.4688 131.245C49.2734 131.036 49 130.838 48.6484 130.649C48.2969 130.46 47.8509 130.268 47.3105 130.073C46.7246 129.864 46.194 129.633 45.7188 129.379C45.2435 129.119 44.8366 128.823 44.498 128.491C44.166 128.159 43.9089 127.778 43.7266 127.348C43.5443 126.918 43.4531 126.427 43.4531 125.873C43.4531 125.32 43.5475 124.809 43.7363 124.34C43.9316 123.871 44.2051 123.465 44.5566 123.12C44.9147 122.768 45.3444 122.495 45.8457 122.299C46.347 122.104 46.9069 122.006 47.5254 122.006C48.4499 122.006 49.2279 122.211 49.8594 122.621C50.4974 123.025 50.9792 123.556 51.3047 124.213C51.6302 124.864 51.793 125.561 51.793 126.303H49.9961C49.9961 125.769 49.9082 125.297 49.7324 124.887C49.5632 124.47 49.2962 124.145 48.9316 123.911C48.5736 123.67 48.1048 123.549 47.5254 123.549C47.0046 123.549 46.5749 123.65 46.2363 123.852C45.9043 124.054 45.6569 124.327 45.4941 124.672C45.3379 125.017 45.2598 125.411 45.2598 125.854C45.2598 126.153 45.3118 126.427 45.416 126.674C45.5202 126.915 45.6797 127.14 45.8945 127.348C46.1159 127.556 46.3893 127.748 46.7148 127.924C47.0469 128.1 47.4375 128.269 47.8867 128.432C48.5833 128.66 49.179 128.914 49.6738 129.194C50.1686 129.474 50.5723 129.789 50.8848 130.141C51.1973 130.486 51.4251 130.88 51.5684 131.323C51.7181 131.759 51.793 132.254 51.793 132.807C51.793 133.386 51.6953 133.911 51.5 134.379C51.3112 134.848 51.0345 135.248 50.6699 135.58C50.3053 135.912 49.8659 136.17 49.3516 136.352C48.8372 136.528 48.2578 136.616 47.6133 136.616C47.0534 136.616 46.5033 136.524 45.9629 136.342C45.429 136.16 44.944 135.886 44.5078 135.522C44.0716 135.157 43.7233 134.708 43.4629 134.174C43.2025 133.634 43.0723 133.009 43.0723 132.299H44.8691C44.8691 132.787 44.9408 133.207 45.084 133.559C45.2272 133.904 45.4258 134.19 45.6797 134.418C45.9336 134.646 46.2233 134.815 46.5488 134.926C46.8809 135.03 47.2357 135.082 47.6133 135.082C48.1341 135.082 48.5703 134.991 48.9219 134.809C49.2799 134.627 49.5469 134.366 49.7227 134.028C49.9049 133.689 49.9961 133.289 49.9961 132.827ZM58.7168 122.202V136.42H56.9395V122.202H58.7168ZM62.457 122.202V123.745H53.209V122.202H62.457ZM62.3008 135.463C62.3008 135.157 62.3952 134.9 62.584 134.692C62.7793 134.477 63.0592 134.37 63.4238 134.37C63.7884 134.37 64.0651 134.477 64.2539 134.692C64.4492 134.9 64.5469 135.157 64.5469 135.463C64.5469 135.763 64.4492 136.017 64.2539 136.225C64.0651 136.433 63.7884 136.537 63.4238 136.537C63.0592 136.537 62.7793 136.433 62.584 136.225C62.3952 136.017 62.3008 135.763 62.3008 135.463ZM75.2598 134.936V136.42H67.3105V135.121L71.2266 129.936C71.7083 129.298 72.0762 128.758 72.3301 128.315C72.584 127.866 72.7598 127.465 72.8574 127.114C72.9551 126.756 73.0039 126.391 73.0039 126.02C73.0039 125.551 72.929 125.128 72.7793 124.75C72.6296 124.366 72.4115 124.06 72.125 123.832C71.8385 123.605 71.4935 123.491 71.0898 123.491C70.5625 123.491 70.1296 123.614 69.791 123.862C69.459 124.103 69.2148 124.441 69.0586 124.877C68.9023 125.314 68.8242 125.815 68.8242 126.381H67.0957C67.0957 125.58 67.2422 124.848 67.5352 124.184C67.8346 123.52 68.2806 122.993 68.873 122.602C69.4655 122.205 70.2044 122.006 71.0898 122.006C71.8516 122.006 72.5026 122.166 73.043 122.485C73.5898 122.797 74.0065 123.24 74.293 123.813C74.5859 124.379 74.7324 125.043 74.7324 125.805C74.7324 126.222 74.6738 126.645 74.5566 127.075C74.446 127.498 74.2897 127.921 74.0879 128.344C73.8926 128.767 73.6615 129.184 73.3945 129.594C73.1276 130.004 72.8411 130.408 72.5352 130.805L69.3809 134.936H75.2598ZM84.791 128.178V130.346C84.791 131.511 84.6999 132.495 84.5176 133.295C84.3418 134.096 84.0879 134.741 83.7559 135.229C83.4238 135.717 83.0234 136.072 82.5547 136.293C82.0924 136.508 81.5716 136.616 80.9922 136.616C80.5365 136.616 80.11 136.547 79.7129 136.411C79.3223 136.274 78.9707 136.056 78.6582 135.756C78.3457 135.45 78.0788 135.053 77.8574 134.565C77.6361 134.077 77.4668 133.484 77.3496 132.787C77.2324 132.091 77.1738 131.277 77.1738 130.346V128.178C77.1738 127.013 77.265 126.036 77.4473 125.248C77.6296 124.461 77.8867 123.829 78.2188 123.354C78.5573 122.872 78.9577 122.527 79.4199 122.319C79.8887 122.11 80.4095 122.006 80.9824 122.006C81.4447 122.006 81.8711 122.075 82.2617 122.211C82.6589 122.342 83.0104 122.553 83.3164 122.846C83.6289 123.133 83.8958 123.517 84.1172 123.998C84.3385 124.474 84.5046 125.056 84.6152 125.746C84.7324 126.437 84.791 127.247 84.791 128.178ZM83.0723 130.639V127.875C83.0723 127.237 83.043 126.677 82.9844 126.196C82.9258 125.707 82.8411 125.291 82.7305 124.946C82.6198 124.601 82.4766 124.321 82.3008 124.106C82.1315 123.891 81.9362 123.735 81.7148 123.637C81.4935 123.533 81.2493 123.481 80.9824 123.481C80.6504 123.481 80.3542 123.562 80.0938 123.725C79.8398 123.881 79.6217 124.132 79.4395 124.477C79.2637 124.822 79.1302 125.274 79.0391 125.834C78.9479 126.394 78.9023 127.075 78.9023 127.875V130.639C78.9023 131.277 78.9316 131.84 78.9902 132.328C79.0553 132.817 79.1432 133.24 79.2539 133.598C79.3711 133.95 79.5143 134.239 79.6836 134.467C79.8529 134.695 80.0482 134.864 80.2695 134.975C80.4909 135.079 80.7318 135.131 80.9922 135.131C81.3372 135.131 81.6367 135.047 81.8906 134.877C82.151 134.708 82.3691 134.444 82.5449 134.086C82.7207 133.722 82.8509 133.256 82.9355 132.69C83.0267 132.117 83.0723 131.433 83.0723 130.639ZM95.0254 134.936V136.42H87.0762V135.121L90.9922 129.936C91.474 129.298 91.8418 128.758 92.0957 128.315C92.3496 127.866 92.5254 127.465 92.623 127.114C92.7207 126.756 92.7695 126.391 92.7695 126.02C92.7695 125.551 92.6947 125.128 92.5449 124.75C92.3952 124.366 92.1771 124.06 91.8906 123.832C91.6042 123.605 91.2591 123.491 90.8555 123.491C90.3281 123.491 89.8952 123.614 89.5566 123.862C89.2246 124.103 88.9805 124.441 88.8242 124.877C88.668 125.314 88.5898 125.815 88.5898 126.381H86.8613C86.8613 125.58 87.0078 124.848 87.3008 124.184C87.6003 123.52 88.0462 122.993 88.6387 122.602C89.2311 122.205 89.9701 122.006 90.8555 122.006C91.6172 122.006 92.2682 122.166 92.8086 122.485C93.3555 122.797 93.7721 123.24 94.0586 123.813C94.3516 124.379 94.498 125.043 94.498 125.805C94.498 126.222 94.4395 126.645 94.3223 127.075C94.2116 127.498 94.0553 127.921 93.8535 128.344C93.6582 128.767 93.4271 129.184 93.1602 129.594C92.8932 130.004 92.6068 130.408 92.3008 130.805L89.1465 134.936H95.0254ZM99.1758 128.422H100.289C100.784 128.422 101.194 128.318 101.52 128.11C101.845 127.895 102.086 127.605 102.242 127.241C102.405 126.87 102.486 126.453 102.486 125.991C102.486 125.444 102.415 124.985 102.271 124.614C102.128 124.243 101.913 123.963 101.627 123.774C101.347 123.585 100.992 123.491 100.562 123.491C100.159 123.491 99.8073 123.592 99.5078 123.793C99.2083 123.989 98.9772 124.269 98.8145 124.633C98.6517 124.998 98.5703 125.427 98.5703 125.922H96.8516C96.8516 125.2 97.0013 124.542 97.3008 123.95C97.6068 123.357 98.0365 122.885 98.5898 122.534C99.1497 122.182 99.8073 122.006 100.562 122.006C101.285 122.006 101.92 122.159 102.467 122.465C103.014 122.765 103.44 123.214 103.746 123.813C104.059 124.405 104.215 125.144 104.215 126.03C104.215 126.388 104.146 126.772 104.01 127.182C103.88 127.586 103.668 127.963 103.375 128.315C103.089 128.666 102.711 128.956 102.242 129.184C101.78 129.405 101.214 129.516 100.543 129.516H99.1758V128.422ZM99.1758 129.907V128.823H100.543C101.337 128.823 101.985 128.93 102.486 129.145C102.988 129.36 103.375 129.646 103.648 130.004C103.922 130.362 104.111 130.756 104.215 131.186C104.326 131.609 104.381 132.032 104.381 132.455C104.381 133.12 104.283 133.709 104.088 134.223C103.899 134.737 103.629 135.174 103.277 135.532C102.932 135.89 102.529 136.16 102.066 136.342C101.604 136.524 101.1 136.616 100.553 136.616C100.019 136.616 99.5241 136.528 99.0684 136.352C98.6126 136.176 98.2122 135.922 97.8672 135.59C97.5221 135.252 97.252 134.838 97.0566 134.35C96.8678 133.855 96.7734 133.292 96.7734 132.661H98.502C98.502 133.155 98.5833 133.588 98.7461 133.959C98.9089 134.33 99.1432 134.62 99.4492 134.828C99.7552 135.03 100.123 135.131 100.553 135.131C100.982 135.131 101.354 135.037 101.666 134.848C101.979 134.653 102.219 134.36 102.389 133.969C102.564 133.578 102.652 133.087 102.652 132.495C102.652 131.902 102.555 131.417 102.359 131.039C102.171 130.655 101.9 130.372 101.549 130.19C101.197 130.001 100.777 129.907 100.289 129.907H99.1758Z" fill="black"/>
<rect x="20" y="36.0624" width="51" height="11" transform="rotate(-45 20 36.0624)" fill="#06CBAD" fill-opacity="0.69"/>
<rect x="95.4827" y="44.2609" width="51" height="11" transform="rotate(-135 95.4827 44.2609)" fill="#866BFA" fill-opacity="0.69"/>
<rect x="56.4827" y="80.2609" width="51" height="11" transform="rotate(-135 56.4827 80.2609)" fill="#FD456B" fill-opacity="0.69"/>
<rect x="103.261" y="44.1985" width="51" height="11" transform="rotate(135 103.261 44.1985)" fill="#F5CC00" fill-opacity="0.69"/>
<path d="M61.7083 45.0363V32.8443H59.2763C58.999 32.8443 58.8603 32.7163 58.8603 32.4603V30.8283C58.8603 30.5723 58.999 30.4443 59.2763 30.4443H66.9563C67.2336 30.4443 67.3723 30.5723 67.3723 30.8283V32.4603C67.3723 32.7163 67.2336 32.8443 66.9563 32.8443H64.4923V44.7483C64.4923 47.8843 63.7563 50.1136 62.2843 51.4363C60.8123 52.7589 58.5083 53.4203 55.3723 53.4203C55.095 53.4203 54.9563 53.2923 54.9563 53.0363V51.4043C54.9563 51.1483 55.095 51.0203 55.3723 51.0203C57.719 51.0203 59.3616 50.5403 60.3003 49.5803C61.239 48.5989 61.7083 47.0843 61.7083 45.0363Z" fill="black"/>
</svg>
